<?xml version="1.0" encoding="utf-8"?><!--Generator: Adobe Illustrator 15.0.0, SVG Export Plug-In . SVG Version: 6.00 Build 0)--><!DOCTYPE svg PUBLIC "-//W3C//DTD SVG 1.1//EN" "http://www.w3.org/Graphics/SVG/1.1/DTD/svg11.dtd"><svg version="1.1" id="Capa_1" xmlns="http://www.w3.org/2000/svg" xmlns:xlink="http://www.w3.org/1999/xlink" x="0px" y="0px" width="898px" height="228px" viewBox="0 0 898 228" enable-background="new 0 0 898 228" xml:space="preserve"><g><polygon fill="#FFFFFF" points="735.273,44.584 735.273,73.957 775.492,73.957 775.492,183.416 814.036,183.416 814.036,73.957 
		854.521,73.957 854.521,44.584 	"/><polygon fill="#FFFFFF" points="108.104,44.584 43.479,183.416 84.854,183.416 128.791,89.025 172.729,183.416 214.104,183.416 
		149.479,44.584 	"/><path fill="#FFFFFF" d="M523.368,99.558h-68.763c-7.052,0-12.766-5.75-12.766-12.801c0-7.049,5.714-12.8,12.766-12.8h102.53V44.584
		H447.389c-23.217,0-42.038,18.82-42.038,42.038c0,23.218,18.821,42.106,42.038,42.106h68.661c7.048,0,12.765,5.823,12.765,12.877
		c0,7.049-5.717,12.764-12.765,12.764H414.101v29.047h109.164c23.219,0,42.038-18.727,42.038-41.947
		C565.303,118.251,546.585,99.558,523.368,99.558z"/><path fill="#FFFFFF" d="M340.383,128.729c23.219,0,42.059-18.889,42.059-42.105s-18.821-42.038-42.039-42.038H230.141v29.373
		h103.047c7.049,0,12.764,5.751,12.764,12.8c0,7.051-5.714,12.804-12.763,12.804H230.141v83.855h38.604v-54.688h6.342l62.825,54.688
		h1.326h45.233l-63.044-54.688H340.383z"/><polygon fill="#FFFFFF" points="639.176,44.584 574.552,183.416 615.926,183.416 659.863,89.025 703.801,183.416 745.176,183.416 
		680.551,44.584 	"/></g></svg>